{"title":"Real.Time.With.Bill.Maher.JUST.OVERTIME.2013.11.15.mp4","uid":9200705,"size":98003222,"categoryP":"video","categoryS":"tv_shows","magnet":"?xt=urn:btih:379bfad0a09377e70730f628ba281915a88d0cc5&amp;dn=Real.Time.With.Bill.Maher.JUST.OVERTIME.2013.11.15.mp4&amp;tr=udp%3A%2F%2Ftracker.openbittorrent.com%3A80&amp;tr=udp%3A%2F%2Fopen.demonii.com%3A1337&amp;tr=udp%3A%2F%2Ftracker.coppersurfer.tk%3A6969&amp;tr=udp%3A%2F%2Fexodus.desync.com%3A6969","seeders":1,"leechers":2,"uploader":"moonerman100","files":1,"time":1384590090,"description":"Real.Time.With.Bill.Maher.JUST.OVERTIME.2013.11.15.mp4\n\n\nVideo\nID                               : 1\nFormat                           : AVC\nFormat/Info                      : Advanced Video Codec\nFormat profile                   : &lt;a class=&quot;__cf_email__&quot; href=&quot;/cdn-cgi/l/email-protection&quot; data-cfemail=&quot;cd80aca4a38d81fee3fc&quot;&gt;[email&amp;#160;protected]&lt;/a&gt;&lt;script cf-hash='f9e31' type=&quot;text/javascript&quot;&gt;\n/* &lt;![CDATA[ */!function(){try{var t=&quot;currentScript&quot;in document?document.currentScript:function(){for(var t=document.getElementsByTagName(&quot;script&quot;),e=t.length;e--;)if(t[e].getAttribute(&quot;cf-hash&quot;))return t[e]}();if(t&amp;&amp;t.previousSibling){var e,r,n,i,c=t.previousSibling,a=c.getAttribute(&quot;data-cfemail&quot;);if(a){for(e=&quot;&quot;,r=parseInt(a.substr(0,2),16),n=2;a.length-n;n+=2)i=parseInt(a.substr(n,2),16)^r,e+=String.fromCharCode(i);e=document.createTextNode(e),c.parentNode.replaceChild(e,c)}}}catch(u){}}();/* ]]&gt; */&lt;/script&gt;\nFormat settings, CABAC           : No\nFormat settings, ReFrames        : 2 frames\nFormat settings, GOP             : M=2, N=24\nCodec ID                         : avc1\nCodec ID/Info                    : Advanced Video Coding\nDuration                         : 8mn 17s\nBit rate                         : 1 446 Kbps\nMaximum bit rate                 : 2 843 Kbps\nWidth                            : 864 pixels\nHeight                           : 486 pixels\nDisplay aspect ratio             : 16:9\nFrame rate mode                  : Constant\nFrame rate                       : 29.970 fps\nColor space                      : YUV\nChroma subsampling               : 4:2:0\nBit depth                        : 8 bits\nScan type                        : Progressive\nBits/(Pixel*Frame)               : 0.115\nStream size                      : 85.8 MiB (92%)\nEncoded date                     : UTC 2013-11-15 07:12:31\nTagged date                      : UTC 2013-11-15 07:12:35\nColor primaries                  : BT.709-5, BT.1361, IEC 61966-2-4, SMPTE RP177\nTransfer characteristics         : BT.709-5, BT.1361\nMatrix coefficients              : BT.709-5, BT.1361, IEC 61966-2-4 709, SMPTE RP177\n\nAudio\nID                               : 2\nFormat                           : AAC\nFormat/Info                      : Advanced Audio Codec\nFormat profile                   : LC\nCodec ID                         : 40\nDuration                         : 8mn 18s\nBit rate mode                    : Variable\nBit rate                         : 124 Kbps\nMaximum bit rate                 : 169 Kbps\nChannel(s)                       : 2 channels\nChannel positions                : Front: L R\nSampling rate                    : 44.1 KHz\nCompression mode                 : Lossy\nStream size                      : 7.37 MiB (8%)\nEncoded date                     : UTC 2013-11-15 07:12:35\nTagged date                      : UTC 2013-11-15 07:12:35\n","torrent":{"xt":"urn:btih:379bfad0a09377e70730f628ba281915a88d0cc5","amp;dn":"Real.Time.With.Bill.Maher.JUST.OVERTIME.2013.11.15.mp4","amp;tr":["udp%3A%2F%2Ftracker.openbittorrent.com%3A80","udp%3A%2F%2Fopen.demonii.com%3A1337","udp%3A%2F%2Ftracker.coppersurfer.tk%3A6969","udp%3A%2F%2Fexodus.desync.com%3A6969"],"infoHash":"379bfad0a09377e70730f628ba281915a88d0cc5","infoHashBuffer":{"type":"Buffer","data":[55,155,250,208,160,147,119,231,7,48,246,40,186,40,25,21,168,141,12,197]},"announce":[],"urlList":[]}}